<?xml version="1.0" standalone="no"?>
<!DOCTYPE svg PUBLIC "-//W3C//DTD SVG 20010904//EN"
 "http://www.w3.org/TR/2001/REC-SVG-20010904/DTD/svg10.dtd">
<svg version="1.0" xmlns="http://www.w3.org/2000/svg"
 width="600.000000pt" height="600.000000pt" viewBox="0 0 600.000000 600.000000"
 preserveAspectRatio="xMidYMid meet">
<metadata>
Created by potrace 1.11, written by Peter Selinger 2001-2013
</metadata>
<g transform="translate(0.000000,600.000000) scale(0.100000,-0.100000)"
fill="#000000" stroke="none">
<path d="M2115 5769 c-4 -6 -5 -12 -2 -15 2 -3 7 2 10 11 7 17 1 20 -8 4z"/>
<path d="M2055 5751 c-3 -5 -2 -12 3 -15 5 -3 9 1 9 9 0 17 -3 19 -12 6z"/>
<path d="M1815 5740 c-3 -5 -1 -10 4 -10 6 0 11 5 11 10 0 6 -2 10 -4 10 -3 0
-8 -4 -11 -10z"/>
<path d="M1850 5740 c0 -5 5 -10 11 -10 5 0 7 5 4 10 -3 6 -8 10 -11 10 -2 0
-4 -4 -4 -10z"/>
<path d="M1990 5736 c0 -2 8 -10 18 -17 15 -13 16 -12 3 4 -13 16 -21 21 -21
13z"/>
<path d="M2190 5721 c0 -6 4 -13 10 -16 6 -3 7 1 4 9 -7 18 -14 21 -14 7z"/>
<path d="M1807 5698 c4 -8 -11 -11 -49 -11 -9 0 -16 -4 -15 -10 1 -6 -2 -11
-8 -12 -5 0 -15 -4 -22 -8 -6 -4 -14 -1 -16 5 -4 9 -6 8 -6 -2 -1 -15 -40 -46
-53 -42 -5 1 -8 -3 -8 -9 0 -6 -9 -8 -22 -4 -16 4 -19 3 -9 -3 10 -8 8 -13
-10 -25 -12 -9 -42 -35 -65 -57 -24 -23 -48 -39 -54 -35 -5 3 -7 0 -4 -8 3 -8
-2 -19 -10 -26 -27 -23 -93 -181 -75 -181 5 0 9 -5 9 -11 0 -5 -3 -8 -7 -6 -5
3 -8 -32 -9 -76 -2 -179 -3 -199 -16 -191 -10 6 -10 4 -2 -7 13 -16 15 -49 2
-49 -4 0 -8 -5 -8 -11 0 -5 4 -8 8 -5 4 2 8 -4 8 -15 0 -22 -7 -24 -26 -6 -8
6 -6 2 3 -9 14 -17 15 -23 5 -27 -9 -4 -7 -6 4 -6 11 -1 15 -6 12 -16 -4 -8
-11 -12 -17 -8 -6 4 -7 1 -1 -8 13 -22 11 -72 -4 -98 -8 -13 -9 -21 -4 -17 6
3 13 2 17 -4 3 -5 1 -10 -5 -10 -7 0 -8 -6 -1 -18 7 -13 6 -23 -2 -32 -9 -10
-9 -11 1 -6 15 9 15 1 1 -26 -6 -12 -7 -18 -1 -14 14 9 22 -30 8 -45 -8 -9 -8
-10 2 -5 8 5 12 -1 12 -17 0 -13 9 -52 21 -88 17 -53 19 -67 8 -84 -11 -18
-10 -19 4 -7 13 11 16 10 23 -10 4 -13 7 -26 6 -30 -1 -5 2 -8 6 -8 13 0 33
-50 26 -62 -4 -6 -2 -8 4 -4 17 10 25 -13 11 -32 -11 -14 -11 -15 0 -5 11 9
22 1 54 -40 22 -29 54 -67 71 -85 23 -25 28 -35 18 -41 -11 -7 -10 -10 3 -14
11 -5 14 -3 9 6 -4 6 5 1 18 -13 14 -14 24 -26 23 -28 -2 -2 10 -16 27 -32 18
-17 27 -34 22 -41 -4 -7 -3 -9 3 -6 14 9 74 -62 66 -77 -3 -6 -3 -8 1 -4 10 8
57 -32 50 -44 -3 -4 1 -8 9 -8 18 0 28 -24 21 -47 -5 -15 -4 -16 5 -3 10 13
13 13 26 -4 8 -10 12 -23 8 -29 -3 -6 -1 -7 5 -3 7 4 12 2 12 -4 0 -6 4 -8 10
-5 5 3 10 1 10 -5 0 -7 14 -25 30 -40 17 -15 30 -33 30 -40 0 -6 4 -9 9 -5 5
3 12 1 16 -5 3 -5 1 -10 -4 -10 -6 0 -11 -5 -11 -11 0 -5 5 -7 10 -4 15 9 42
-15 36 -31 -3 -8 0 -11 8 -8 16 6 50 -31 41 -45 -3 -6 0 -9 8 -5 16 6 60 -43
51 -57 -3 -5 3 -6 12 -2 13 5 16 3 11 -10 -3 -9 -3 -16 1 -16 33 5 43 -16 30
-71 -4 -19 -10 -51 -14 -70 -3 -19 -7 -43 -10 -52 -3 -10 -7 -30 -10 -45 -3
-16 -12 -55 -21 -88 -8 -33 -17 -71 -20 -85 -2 -14 -15 -65 -28 -115 -13 -49
-26 -101 -28 -115 -3 -14 -11 -45 -18 -70 -17 -61 -17 -62 -23 -89 -3 -13 -10
-38 -16 -56 -6 -18 -12 -41 -15 -51 -10 -51 -37 -156 -84 -329 -82 -299 -105
-388 -115 -440 -1 -5 -5 -16 -9 -22 -5 -7 -6 -13 -3 -13 2 0 1 -14 -4 -32 -5
-17 -12 -47 -15 -67 -3 -20 -9 -59 -13 -87 -8 -46 -8 -69 0 -129 2 -11 9 -24
16 -28 6 -4 12 -15 12 -22 0 -8 5 -15 10 -15 6 0 10 -6 10 -13 0 -7 9 -18 21
-25 12 -8 18 -19 15 -28 -3 -8 -1 -14 5 -14 17 0 99 -82 92 -93 -3 -6 -1 -7 5
-3 6 3 14 0 19 -7 4 -7 22 -24 40 -37 18 -13 30 -27 27 -32 -3 -4 2 -8 10 -8
10 0 13 -6 9 -17 -4 -11 -3 -14 6 -9 14 9 51 -20 51 -41 0 -8 5 -11 10 -8 6 3
10 1 10 -5 0 -6 5 -8 12 -4 7 4 8 3 4 -4 -4 -7 -1 -12 8 -12 19 0 19 -4 5 -33
-10 -21 -9 -21 5 -3 18 22 10 26 121 -69 39 -33 92 -78 118 -99 51 -43 55 -51
31 -60 -13 -5 -15 -2 -11 14 3 11 1 18 -4 14 -12 -7 -11 -31 1 -39 6 -4 18 -1
26 6 12 10 21 4 54 -32 22 -24 43 -54 46 -66 3 -13 10 -23 14 -23 16 0 18 -54
3 -66 -14 -9 -14 -12 -2 -19 8 -5 11 -5 7 0 -4 4 -1 13 7 19 8 6 16 26 17 43
1 18 5 33 8 33 3 0 6 24 7 52 3 79 5 92 17 100 8 6 8 8 0 8 -6 0 -10 10 -8 22
1 13 3 23 4 23 1 0 4 31 6 70 3 38 10 76 17 84 9 11 9 15 -1 18 -6 3 -10 9 -6
14 3 5 7 29 9 53 6 61 8 70 20 78 6 5 5 8 -3 8 -7 0 -10 5 -7 10 4 6 11 7 17
4 7 -5 8 -2 2 7 -5 8 -9 30 -9 49 0 27 5 38 25 47 22 11 22 12 3 7 -13 -3 -23
-1 -23 5 0 6 6 11 13 11 8 0 9 3 1 8 -6 4 -10 16 -8 27 2 11 6 50 10 86 6 71
11 121 15 129 2 6 6 43 8 83 1 20 5 26 14 21 9 -6 9 -5 0 7 -7 8 -10 26 -8 40
11 58 14 70 21 81 5 7 3 8 -6 3 -10 -6 -12 -4 -7 9 4 10 7 22 7 27 0 6 5 7 12
3 7 -5 8 -3 2 7 -10 17 -13 59 -4 59 4 0 6 18 4 40 -1 22 1 40 4 40 4 0 7 16
6 36 -2 29 1 34 14 30 15 -5 15 -4 0 8 -17 13 -26 32 -10 23 6 -5 10 31 11
117 0 15 6 35 12 43 9 11 9 17 0 26 -9 9 -6 16 11 29 14 11 16 16 6 12 -12 -4
-16 -1 -13 13 2 10 4 31 4 46 1 16 5 26 11 22 6 -3 10 -1 10 4 0 6 -4 11 -8
11 -6 0 -8 44 -2 60 1 3 1 15 1 26 -1 12 5 29 14 38 9 9 12 16 6 16 -6 0 -11
11 -11 25 0 14 3 25 8 25 4 0 7 23 6 50 0 28 2 50 6 50 3 0 5 15 4 32 -1 18 2
39 8 45 6 8 7 13 1 13 -5 0 -10 7 -10 16 0 15 2 15 13 -1 7 -9 18 -14 26 -10
7 4 3 -2 -10 -12 l-23 -19 28 1 c15 1 33 -3 39 -7 7 -5 14 -3 18 7 3 8 12 15
20 15 10 0 13 -6 10 -15 -4 -10 -2 -14 7 -10 8 2 37 -15 64 -39 48 -42 49 -45
32 -63 -14 -16 -14 -20 -2 -20 8 0 13 3 11 6 -2 3 2 11 9 18 10 9 17 7 34 -10
26 -27 56 -52 151 -124 41 -31 77 -59 80 -62 3 -4 28 -24 57 -45 29 -22 49
-44 46 -49 -3 -6 -1 -7 6 -3 11 7 78 -38 113 -77 9 -10 19 -17 23 -16 10 2 84
-54 85 -64 0 -5 -4 -5 -10 -2 -5 3 -10 1 -10 -4 0 -15 13 -14 29 2 11 10 13 9
8 -4 -3 -9 -1 -22 5 -30 8 -11 9 -10 4 4 -3 9 -1 17 4 17 6 0 10 -4 10 -10 0
-5 6 -10 14 -10 22 0 29 -19 15 -38 -13 -16 -12 -16 6 0 20 16 22 16 64 -17
24 -19 47 -35 52 -35 4 0 14 -6 21 -13 7 -6 30 -23 50 -37 20 -13 35 -27 32
-31 -2 -4 3 -10 12 -13 10 -4 13 -2 7 7 -6 10 14 -4 74 -53 7 -6 17 -10 22
-10 5 0 16 -8 23 -17 7 -10 20 -19 28 -21 8 -2 22 -10 30 -19 13 -14 12 -14
-10 -8 -14 4 -21 4 -17 -1 4 -4 20 -8 35 -9 17 0 26 -6 24 -14 -2 -8 3 -11 12
-8 8 3 46 -14 85 -38 39 -24 71 -41 71 -38 0 3 8 -1 18 -10 10 -10 22 -14 25
-10 4 3 7 0 7 -7 0 -7 3 -10 7 -7 3 4 12 -1 20 -11 8 -9 12 -12 9 -6 -3 6 5
10 17 10 18 -1 23 5 25 32 2 17 7 32 12 32 4 0 6 10 2 23 -5 18 -3 20 9 10 12
-10 15 -8 15 7 0 10 -5 16 -10 13 -5 -4 -6 7 -3 27 4 18 7 37 7 42 0 5 3 7 8
5 4 -3 6 9 6 26 -1 18 5 43 13 56 9 14 10 21 3 16 -8 -5 -10 -2 -6 11 13 45
23 103 18 109 -3 3 0 5 6 5 7 0 12 -5 12 -12 0 -6 3 -8 6 -5 4 4 1 13 -6 22
-7 8 -9 22 -5 32 4 10 9 40 12 68 2 27 9 55 15 62 8 10 7 13 -3 13 -9 0 -10 3
-4 8 6 4 11 18 12 32 1 14 3 42 4 62 2 21 6 38 10 38 4 0 5 18 3 40 -2 23 0
40 6 40 6 0 10 5 10 11 0 5 -4 7 -10 4 -5 -3 -10 -1 -10 4 0 6 3 11 8 11 4 0
6 33 5 72 -1 40 -2 87 -3 105 0 27 -6 34 -40 49 -21 10 -36 22 -33 27 3 6 1 7
-5 3 -9 -6 -59 11 -72 24 -5 5 -43 27 -133 75 -43 23 -47 28 -35 43 12 15 11
16 -4 4 -15 -12 -28 -7 -102 39 -47 28 -83 56 -80 60 3 5 -1 6 -8 4 -8 -3 -23
2 -34 12 -11 10 -33 26 -49 35 -17 10 -29 22 -27 28 1 7 -2 9 -7 6 -10 -7 -91
43 -91 56 0 4 -3 7 -8 5 -13 -4 -280 187 -274 197 3 5 0 6 -6 2 -6 -3 -17 1
-25 9 -9 8 -19 15 -23 15 -4 0 -14 7 -23 15 -9 9 -42 34 -74 56 -33 23 -54 45
-51 51 4 7 2 8 -5 4 -12 -8 -70 30 -102 66 -9 10 -19 15 -22 12 -3 -3 -12 3
-19 15 -7 12 -18 21 -25 21 -7 0 -18 9 -25 20 -7 11 -21 20 -31 20 -10 0 -15
5 -12 10 3 6 1 10 -5 10 -17 0 -40 26 -32 35 4 5 1 5 -6 1 -16 -9 -44 12 -35
27 3 6 1 7 -6 3 -14 -9 -103 63 -94 77 3 5 2 7 -4 4 -16 -10 -73 31 -73 53 0
24 3 25 38 4 18 -11 22 -12 10 -2 -10 8 -14 19 -10 23 4 5 1 5 -5 1 -7 -4 -13
-2 -13 3 0 19 -17 12 -27 -11 -10 -21 -11 -20 -9 12 2 27 8 36 27 41 23 7 22
7 -6 8 -21 1 -26 4 -16 10 10 7 10 10 1 13 -10 3 -10 9 -1 26 6 12 8 22 4 22
-9 0 -10 46 -1 55 3 3 3 35 0 71 -3 49 0 69 10 75 10 6 10 9 1 9 -18 0 -16 25
3 58 11 18 11 21 2 10 -13 -15 -15 -7 -14 67 1 59 5 85 13 85 6 0 14 4 17 9 4
5 -4 7 -16 4 -17 -3 -19 -2 -9 5 8 6 10 12 3 16 -17 10 -10 47 7 41 11 -4 11
-2 3 8 -7 9 -13 85 -17 203 -4 180 -8 234 -19 279 -9 39 -45 145 -56 165 -8
16 -8 20 2 18 7 -2 17 -7 21 -13 5 -6 7 -4 4 5 -2 8 -9 16 -15 16 -7 1 -16 2
-20 3 -5 0 -14 13 -21 27 -10 23 -9 26 4 21 8 -4 15 -4 15 -1 0 2 -11 9 -25
14 -18 7 -23 14 -18 26 5 13 3 15 -7 9 -10 -6 -12 -4 -7 8 4 10 2 16 -6 14 -7
-1 -11 6 -11 15 1 10 -4 14 -12 11 -8 -3 -14 -1 -14 5 0 6 -18 28 -40 49 -32
32 -37 42 -27 53 10 11 8 11 -7 0 -16 -13 -20 -12 -32 5 -11 14 -11 22 -2 34
9 11 5 10 -9 -2 -21 -18 -22 -18 -33 2 -6 12 -8 26 -5 31 3 5 1 11 -4 14 -5 4
-8 -4 -7 -17 3 -23 2 -22 -63 12 -36 19 -67 38 -69 43 -2 4 -13 8 -24 8 -10 0
-26 7 -35 15 -8 8 -19 13 -24 10 -5 -4 -9 -1 -9 4 0 6 -3 10 -7 10 -5 -1 -11
0 -15 1 -5 1 -11 3 -15 4 -5 1 -25 10 -47 19 -34 15 -37 19 -25 35 12 16 12
16 -5 0 -15 -13 -23 -14 -40 -5 -11 7 -24 16 -28 22 -4 5 -10 6 -14 3 -3 -4
-21 -1 -39 6 -52 22 -168 38 -253 34 -44 -2 -78 -6 -75 -10z m423 -333 c7 -8
9 -15 6 -15 -4 0 0 -7 9 -16 13 -13 13 -19 3 -32 -10 -12 -10 -14 0 -8 8 5 15
-1 21 -16 10 -27 5 -41 -12 -32 -7 4 -8 3 -4 -2 5 -5 14 -9 20 -9 10 0 20 -25
37 -95 5 -19 12 -46 16 -59 6 -19 4 -22 -7 -16 -11 7 -11 6 1 -9 8 -10 16 -25
17 -35 10 -47 15 -90 17 -121 0 -19 6 -38 11 -42 6 -5 5 -8 -2 -8 -7 0 -13 -5
-13 -11 0 -5 5 -7 10 -4 6 3 10 -1 10 -9 0 -9 -6 -16 -12 -16 -9 0 -10 -3 -2
-8 6 -4 13 -19 16 -34 4 -21 1 -28 -11 -29 -13 -1 -13 -2 2 -6 20 -5 22 -14 5
-32 -8 -8 -8 -11 -2 -8 8 5 12 -19 14 -81 4 -189 4 -192 -17 -193 -16 -1 -16
-2 -1 -6 13 -3 16 -15 15 -61 -1 -31 -6 -60 -11 -64 -5 -3 -22 6 -38 20 -50
46 -63 56 -91 75 -18 12 -26 24 -23 33 3 9 1 12 -5 9 -14 -9 -61 24 -53 37 4
6 3 8 -3 5 -12 -7 -69 42 -65 56 1 5 -2 6 -7 2 -6 -3 -24 7 -40 22 -34 32
-109 95 -123 104 -5 3 -10 15 -11 27 0 11 -5 18 -9 16 -5 -3 -5 -11 -2 -17 4
-7 -8 2 -27 20 -19 17 -51 46 -71 64 -21 17 -35 36 -32 41 3 4 -4 8 -15 8 -23
0 -27 19 -8 39 9 11 7 11 -10 0 -20 -12 -24 -11 -39 9 -9 13 -22 28 -30 35
-37 30 -44 39 -39 48 4 5 -1 9 -11 9 -14 0 -15 2 -3 17 10 11 10 14 2 9 -14
-8 -5 25 19 67 7 12 11 25 10 30 -1 4 2 7 8 7 5 0 10 6 10 14 0 21 100 120
162 159 95 61 205 98 358 121 14 2 28 4 31 5 4 0 12 -6 19 -14z m694 -2665 c0
-16 2 -17 14 -7 12 10 14 9 10 -3 -2 -8 -17 -16 -32 -17 -22 -2 -25 1 -16 12
13 16 -3 55 -23 54 -9 0 -9 -2 1 -6 6 -2 12 -12 12 -21 0 -23 -19 -2 -25 27
l-4 22 32 -20 c19 -12 32 -29 31 -41z"/>
<path d="M2199 5333 c-13 -16 -12 -17 4 -4 16 13 21 21 13 21 -2 0 -10 -8 -17
-17z"/>
<path d="M2221 5316 c-9 -11 -9 -16 1 -22 7 -4 10 -4 6 1 -4 4 -3 14 3 22 6 7
9 13 6 13 -2 0 -10 -6 -16 -14z"/>
<path d="M2279 5188 c-7 -24 -4 -40 9 -50 15 -11 15 -11 6 2 -6 8 -10 23 -9
33 3 13 -2 26 -6 15z"/>
<path d="M2270 5120 c0 -5 5 -10 11 -10 5 0 7 5 4 10 -3 6 -8 10 -11 10 -2 0
-4 -4 -4 -10z"/>
<path d="M1640 5000 c-8 -5 -10 -10 -5 -10 6 0 17 5 25 10 8 5 11 10 5 10 -5
0 -17 -5 -25 -10z"/>
<path d="M2305 5000 c-3 -6 1 -7 9 -4 18 7 21 14 7 14 -6 0 -13 -4 -16 -10z"/>
<path d="M1665 4919 c-3 -4 2 -6 10 -5 21 3 28 13 10 13 -9 0 -18 -4 -20 -8z"/>
<path d="M1733 4889 c-2 -23 3 -25 10 -4 4 8 3 16 -1 19 -4 3 -9 -4 -9 -15z"/>
<path d="M2316 4898 c3 -5 10 -6 15 -3 13 9 11 12 -6 12 -8 0 -12 -4 -9 -9z"/>
<path d="M1810 4820 c0 -5 5 -10 11 -10 5 0 7 5 4 10 -3 6 -8 10 -11 10 -2 0
-4 -4 -4 -10z"/>
<path d="M1913 4795 c0 -8 4 -12 9 -9 5 3 6 10 3 15 -9 13 -12 11 -12 -6z"/>
<path d="M1830 4746 c0 -2 7 -7 16 -10 8 -3 12 -2 9 4 -6 10 -25 14 -25 6z"/>
<path d="M1896 4742 c-2 -4 -1 -14 4 -22 7 -11 9 -9 7 8 -1 24 -3 26 -11 14z"/>
<path d="M2336 4707 c3 -10 9 -15 12 -12 3 3 0 11 -7 18 -10 9 -11 8 -5 -6z"/>
<path d="M2020 4680 c-9 -6 -10 -10 -3 -10 6 0 15 5 18 10 8 12 4 12 -15 0z"/>
<path d="M1993 4625 c0 -8 8 -22 17 -30 14 -13 17 -13 17 -1 0 8 -5 14 -11 13
-5 -1 -10 3 -11 10 0 17 -12 25 -12 8z"/>
<path d="M2073 4583 c4 -3 -1 -16 -10 -27 -18 -21 -18 -21 4 -2 20 16 23 36 6
36 -4 0 -3 -3 0 -7z"/>
<path d="M2139 4548 c-5 -18 -6 -38 -1 -34 7 8 12 36 6 36 -2 0 -4 -1 -5 -2z"/>
<path d="M2256 4402 c-3 -4 4 -9 15 -9 23 -2 25 3 4 10 -8 4 -16 3 -19 -1z"/>
<path d="M2295 4369 c-4 -6 -5 -12 -2 -15 2 -3 7 2 10 11 7 17 1 20 -8 4z"/>
<path d="M2335 4355 c0 -13 3 -21 8 -18 4 2 7 10 7 18 0 8 -3 16 -7 18 -5 3
-8 -5 -8 -18z"/>
<path d="M2353 4315 c0 -8 4 -12 9 -9 4 3 8 9 8 15 0 5 -4 9 -8 9 -5 0 -9 -7
-9 -15z"/>
<path d="M1610 5639 c0 -5 5 -7 10 -4 6 3 10 8 10 11 0 2 -4 4 -10 4 -5 0 -10
-5 -10 -11z"/>
<path d="M2281 5634 c0 -11 3 -14 6 -6 3 7 2 16 -1 19 -3 4 -6 -2 -5 -13z"/>
<path d="M1550 5619 c0 -5 5 -7 10 -4 6 3 10 8 10 11 0 2 -4 4 -10 4 -5 0 -10
-5 -10 -11z"/>
<path d="M2317 5613 c3 -7 6 -13 8 -13 2 0 5 6 8 13 3 8 -1 14 -8 14 -7 0 -11
-6 -8 -14z"/>
<path d="M2380 5605 c0 -2 6 -8 13 -14 10 -8 14 -7 14 2 0 8 -6 14 -14 14 -7
0 -13 -1 -13 -2z"/>
<path d="M2475 5601 c-3 -5 -2 -12 3 -15 5 -3 9 1 9 9 0 17 -3 19 -12 6z"/>
<path d="M2635 5571 c-3 -5 -2 -12 3 -15 5 -3 9 1 9 9 0 17 -3 19 -12 6z"/>
<path d="M2471 5567 c2 -1 13 -9 24 -17 19 -14 19 -14 6 3 -7 9 -18 17 -24 17
-6 0 -8 -1 -6 -3z"/>
<path d="M2600 5540 c-9 -6 -10 -10 -3 -10 6 0 15 5 18 10 8 12 4 12 -15 0z"/>
<path d="M2520 5526 c0 -2 8 -10 18 -17 15 -13 16 -12 3 4 -13 16 -21 21 -21
13z"/>
<path d="M1377 5475 c-4 -8 -3 -16 1 -19 4 -3 9 4 9 15 2 23 -3 25 -10 4z"/>
<path d="M2710 5406 c0 -2 7 -7 16 -10 8 -3 12 -2 9 4 -6 10 -25 14 -25 6z"/>
<path d="M2786 5341 c-3 -4 4 -7 14 -6 27 2 33 10 10 12 -11 1 -22 -2 -24 -6z"/>
<path d="M1347 5319 c7 -7 15 -10 18 -7 3 3 -2 9 -12 12 -14 6 -15 5 -6 -5z"/>
<path d="M2846 5302 c-3 -5 1 -9 9 -9 8 0 12 4 9 9 -3 4 -7 8 -9 8 -2 0 -6 -4
-9 -8z"/>
<path d="M2874 5235 c0 -13 3 -22 7 -19 8 4 6 30 -2 38 -3 3 -5 -5 -5 -19z"/>
<path d="M2913 5175 c0 -8 4 -12 9 -9 5 3 6 10 3 15 -9 13 -12 11 -12 -6z"/>
<path d="M2945 5160 c-3 -6 1 -7 9 -4 18 7 21 14 7 14 -6 0 -13 -4 -16 -10z"/>
<path d="M1347 5139 c7 -7 15 -10 18 -7 3 3 -2 9 -12 12 -14 6 -15 5 -6 -5z"/>
<path d="M2894 5122 c4 -3 14 -7 22 -8 9 -1 13 0 10 4 -4 3 -14 7 -22 8 -9 1
-13 0 -10 -4z"/>
<path d="M1335 5109 c-4 -6 -5 -12 -2 -15 2 -3 7 2 10 11 7 17 1 20 -8 4z"/>
<path d="M2926 5078 c3 -5 10 -6 15 -3 13 9 11 12 -6 12 -8 0 -12 -4 -9 -9z"/>
<path d="M1315 5030 c10 -11 20 -20 23 -20 3 0 -3 9 -13 20 -10 11 -20 20 -23
20 -3 0 3 -9 13 -20z"/>
<path d="M2936 5007 c3 -10 9 -15 12 -12 3 3 0 11 -7 18 -10 9 -11 8 -5 -6z"/>
<path d="M1276 5002 c-3 -5 1 -9 9 -9 8 0 12 4 9 9 -3 4 -7 8 -9 8 -2 0 -6 -4
-9 -8z"/>
<path d="M1320 4980 c-9 -6 -10 -10 -3 -10 6 0 15 5 18 10 8 12 4 12 -15 0z"/>
<path d="M2955 4969 c-4 -6 -5 -12 -2 -15 2 -3 7 2 10 11 7 17 1 20 -8 4z"/>
<path d="M1294 4798 c-4 -7 -3 -10 1 -5 5 4 18 -1 29 -10 21 -18 21 -18 2 5
-22 26 -23 26 -32 10z"/>
<path d="M2993 4795 c0 -8 4 -12 9 -9 5 3 6 10 3 15 -9 13 -12 11 -12 -6z"/>
<path d="M1310 4676 c0 -2 8 -10 18 -17 15 -13 16 -12 3 4 -13 16 -21 21 -21
13z"/>
<path d="M1310 4641 c0 -6 4 -13 10 -16 6 -3 7 1 4 9 -7 18 -14 21 -14 7z"/>
<path d="M1285 4580 c-3 -6 1 -7 9 -4 18 7 21 14 7 14 -6 0 -13 -4 -16 -10z"/>
<path d="M2950 4466 c0 -2 7 -7 16 -10 8 -3 12 -2 9 4 -6 10 -25 14 -25 6z"/>
<path d="M2995 4431 c-3 -5 -2 -12 3 -15 5 -3 9 1 9 9 0 17 -3 19 -12 6z"/>
<path d="M2966 4362 c-3 -5 1 -9 9 -9 8 0 12 4 9 9 -3 4 -7 8 -9 8 -2 0 -6 -4
-9 -8z"/>
<path d="M2950 4325 c0 -7 30 -13 34 -7 3 4 -4 9 -15 9 -10 1 -19 0 -19 -2z"/>
<path d="M2996 4273 c-6 -14 -5 -15 5 -6 7 7 10 15 7 18 -3 3 -9 -2 -12 -12z"/>
<path d="M2953 4155 c0 -8 4 -12 9 -9 4 3 8 9 8 15 0 5 -4 9 -8 9 -5 0 -9 -7
-9 -15z"/>
<path d="M2985 4160 c-3 -6 1 -7 9 -4 18 7 21 14 7 14 -6 0 -13 -4 -16 -10z"/>
<path d="M2970 4119 c0 -5 5 -7 10 -4 6 3 10 8 10 11 0 2 -4 4 -10 4 -5 0 -10
-5 -10 -11z"/>
<path d="M2990 4061 c0 -6 4 -13 10 -16 6 -3 7 1 4 9 -7 18 -14 21 -14 7z"/>
<path d="M2973 4005 c0 -8 4 -12 9 -9 5 3 6 10 3 15 -9 13 -12 11 -12 -6z"/>
<path d="M2968 3966 c-22 -16 -22 -22 -2 -30 9 -3 12 -2 9 5 -4 5 -1 16 5 24
15 18 11 19 -12 1z"/>
<path d="M2996 3898 c3 -5 10 -6 15 -3 13 9 11 12 -6 12 -8 0 -12 -4 -9 -9z"/>
<path d="M2967 3815 c3 -8 9 -12 14 -9 12 7 11 11 -5 17 -10 4 -13 1 -9 -8z"/>
<path d="M3035 3810 c-4 -6 -11 -8 -16 -5 -5 4 -9 1 -9 -4 0 -16 16 -13 30 4
7 8 10 15 7 15 -3 0 -9 -5 -12 -10z"/>
<path d="M1813 3785 c0 -8 4 -12 9 -9 5 3 6 10 3 15 -9 13 -12 11 -12 -6z"/>
<path d="M3040 3765 c0 -2 6 -8 13 -14 10 -8 14 -7 14 2 0 8 -6 14 -14 14 -7
0 -13 -1 -13 -2z"/>
<path d="M1960 3580 c-8 -5 -10 -10 -5 -10 6 0 17 5 25 10 8 5 11 10 5 10 -5
0 -17 -5 -25 -10z"/>
<path d="M3309 3563 c-13 -16 -12 -17 4 -4 9 7 17 15 17 17 0 8 -8 3 -21 -13z"/>
<path d="M2136 3422 c-3 -5 1 -9 9 -9 8 0 12 4 9 9 -3 4 -7 8 -9 8 -2 0 -6 -4
-9 -8z"/>
<path d="M2197 3348 c19 -21 31 -25 14 -5 -6 8 -9 16 -6 19 3 2 -2 5 -10 5
-13 0 -13 -3 2 -19z"/>
<path d="M2951 2642 c-1 -15 -5 -21 -13 -16 -7 5 -8 3 -3 -5 10 -18 28 2 22
25 -4 15 -5 14 -6 -4z"/>
<path d="M2864 2639 c-3 -6 -1 -16 5 -22 9 -9 10 -7 5 7 -5 13 -4 17 4 12 7
-4 12 -2 12 3 0 14 -17 14 -26 0z"/>
<path d="M2900 2640 c0 -5 5 -10 10 -10 6 0 10 5 10 10 0 6 -4 10 -10 10 -5 0
-10 -4 -10 -10z"/>
<path d="M2990 2640 c0 -5 5 -10 11 -10 5 0 7 5 4 10 -3 6 -8 10 -11 10 -2 0
-4 -4 -4 -10z"/>
<path d="M2975 2605 c0 -13 3 -21 8 -18 4 2 7 10 7 18 0 8 -3 16 -7 18 -5 3
-8 -5 -8 -18z"/>
<path d="M2892 2600 c0 -14 2 -19 5 -12 2 6 2 18 0 25 -3 6 -5 1 -5 -13z"/>
<path d="M2913 2592 c-1 -22 0 -24 9 -8 6 10 6 22 2 26 -5 5 -10 -3 -11 -18z"/>
<path d="M3030 2606 c0 -2 7 -7 16 -10 8 -3 12 -2 9 4 -6 10 -25 14 -25 6z"/>
<path d="M2862 2560 c0 -14 2 -19 5 -12 2 6 2 18 0 25 -3 6 -5 1 -5 -13z"/>
<path d="M2960 2560 c-9 -6 -10 -10 -3 -10 6 0 15 5 18 10 8 12 4 12 -15 0z"/>
<path d="M2990 2561 c0 -6 4 -13 10 -16 6 -3 7 1 4 9 -7 18 -14 21 -14 7z"/>
<path d="M3016 2558 c3 -4 11 -5 19 -1 21 7 19 12 -4 10 -11 0 -18 -5 -15 -9z"/>
<path d="M3113 2515 c0 -8 4 -12 9 -9 5 3 6 10 3 15 -9 13 -12 11 -12 -6z"/>
<path d="M2910 2500 c0 -5 5 -10 11 -10 5 0 7 5 4 10 -3 6 -8 10 -11 10 -2 0
-4 -4 -4 -10z"/>
<path d="M3140 2500 c-8 -5 -10 -10 -5 -10 6 0 17 5 25 10 8 5 11 10 5 10 -5
0 -17 -5 -25 -10z"/>
<path d="M2850 2490 c-9 -6 -10 -10 -3 -10 6 0 15 5 18 10 8 12 4 12 -15 0z"/>
<path d="M4695 2449 c-4 -6 -5 -12 -2 -15 2 -3 7 2 10 11 7 17 1 20 -8 4z"/>
<path d="M3155 2409 c-4 -6 -5 -12 -2 -15 2 -3 7 2 10 11 7 17 1 20 -8 4z"/>
<path d="M2830 2401 c0 -6 4 -13 10 -16 6 -3 7 1 4 9 -7 18 -14 21 -14 7z"/>
<path d="M2848 2368 c-10 -10 -14 -18 -9 -18 10 0 36 29 30 34 -2 1 -12 -6
-21 -16z"/>
<path d="M2890 2380 c0 -5 5 -10 11 -10 5 0 7 5 4 10 -3 6 -8 10 -11 10 -2 0
-4 -4 -4 -10z"/>
<path d="M3249 2363 c-13 -16 -12 -17 4 -4 16 13 21 21 13 21 -2 0 -10 -8 -17
-17z"/>
<path d="M3326 2361 c-3 -5 1 -11 9 -14 9 -4 12 -1 8 9 -6 16 -10 17 -17 5z"/>
<path d="M3374 2320 c0 -13 4 -16 10 -10 7 7 7 13 0 20 -6 6 -10 3 -10 -10z"/>
<path d="M3426 2282 c-3 -5 1 -9 9 -9 8 0 12 4 9 9 -3 4 -7 8 -9 8 -2 0 -6 -4
-9 -8z"/>
<path d="M2825 2260 c-3 -6 1 -7 9 -4 18 7 21 14 7 14 -6 0 -13 -4 -16 -10z"/>
<path d="M3335 2260 c-3 -5 -1 -10 4 -10 6 0 11 5 11 10 0 6 -2 10 -4 10 -3 0
-8 -4 -11 -10z"/>
<path d="M3415 2251 c-3 -5 -2 -12 3 -15 5 -3 9 1 9 9 0 17 -3 19 -12 6z"/>
<path d="M3461 2234 c0 -11 3 -14 6 -6 3 7 2 16 -1 19 -3 4 -6 -2 -5 -13z"/>
<path d="M3475 2190 c10 -11 20 -20 23 -20 3 0 -3 9 -13 20 -10 11 -20 20 -23
20 -3 0 3 -9 13 -20z"/>
<path d="M3525 2202 c-15 -11 -16 -29 0 -29 7 0 11 7 7 15 -4 11 -1 13 8 7 9
-5 11 -4 6 3 -8 14 -8 14 -21 4z"/>
<path d="M3558 2173 c7 -3 16 -2 19 1 4 3 -2 6 -13 5 -11 0 -14 -3 -6 -6z"/>
<path d="M2865 2160 c-3 -6 1 -7 9 -4 18 7 21 14 7 14 -6 0 -13 -4 -16 -10z"/>
<path d="M3595 2160 c-3 -5 -1 -10 4 -10 6 0 11 5 11 10 0 6 -2 10 -4 10 -3 0
-8 -4 -11 -10z"/>
<path d="M3519 2133 c-13 -16 -12 -17 4 -4 16 13 21 21 13 21 -2 0 -10 -8 -17
-17z"/>
<path d="M3554 2134 c1 -8 4 -15 7 -16 2 -2 3 -1 2 1 -2 2 2 9 7 16 7 8 5 12
-4 12 -8 0 -13 -6 -12 -13z"/>
<path d="M3616 2142 c-2 -4 0 -14 6 -22 8 -12 9 -12 5 2 -3 9 -1 19 6 22 9 3
9 5 0 5 -6 1 -14 -3 -17 -7z"/>
<path d="M2833 2127 c0 -8 6 -14 14 -14 9 0 10 4 2 14 -6 7 -12 13 -14 13 -1
0 -2 -6 -2 -13z"/>
<path d="M3651 2114 c0 -11 3 -14 6 -6 3 7 2 16 -1 19 -3 4 -6 -2 -5 -13z"/>
<path d="M3530 2099 c0 -5 5 -7 10 -4 6 3 10 8 10 11 0 2 -4 4 -10 4 -5 0 -10
-5 -10 -11z"/>
<path d="M4629 2083 c-13 -16 -12 -17 4 -4 9 7 17 15 17 17 0 8 -8 3 -21 -13z"/>
<path d="M2813 2075 c0 -8 4 -12 9 -9 5 3 6 10 3 15 -9 13 -12 11 -12 -6z"/>
<path d="M3650 2081 c0 -6 4 -13 10 -16 6 -3 7 1 4 9 -7 18 -14 21 -14 7z"/>
<path d="M3599 2033 c-13 -16 -12 -17 4 -4 16 13 21 21 13 21 -2 0 -10 -8 -17
-17z"/>
<path d="M3690 2041 c0 -4 11 -7 25 -7 14 0 25 3 25 7 0 3 -11 7 -25 7 -14 0
-25 -4 -25 -7z"/>
<path d="M2790 2023 c0 -5 5 -15 10 -23 7 -12 9 -10 7 8 -1 19 -17 33 -17 15z"/>
<path d="M2830 2016 c7 -7 13 -7 20 0 6 6 3 10 -10 10 -13 0 -16 -4 -10 -10z"/>
<path d="M3776 2021 c-3 -5 1 -14 9 -21 10 -9 15 -9 15 -1 0 6 -5 11 -11 11
-5 0 -7 5 -4 10 3 6 4 10 1 10 -3 0 -7 -4 -10 -9z"/>
<path d="M3695 2011 c-3 -5 -2 -12 3 -15 5 -3 9 1 9 9 0 17 -3 19 -12 6z"/>
<path d="M3813 1999 c-2 -23 3 -25 10 -4 4 8 3 16 -1 19 -4 3 -9 -4 -9 -15z"/>
<path d="M4635 2009 c-4 -6 -5 -12 -2 -15 2 -3 7 2 10 11 7 17 1 20 -8 4z"/>
<path d="M3740 2000 c-9 -6 -10 -10 -3 -10 6 0 15 5 18 10 8 12 4 12 -15 0z"/>
<path d="M3830 1981 c0 -5 7 -15 17 -22 15 -13 15 -12 4 9 -12 23 -21 28 -21
13z"/>
<path d="M3777 1973 c-10 -9 -9 -23 1 -23 5 0 9 7 9 15 0 17 -1 18 -10 8z"/>
<path d="M3876 1955 c-9 -26 -7 -32 5 -12 6 10 9 21 6 23 -2 3 -7 -2 -11 -11z"/>
<path d="M4585 1960 c-3 -6 1 -7 9 -4 18 7 21 14 7 14 -6 0 -13 -4 -16 -10z"/>
<path d="M3895 1940 c-3 -6 -1 -18 5 -27 9 -16 10 -15 5 4 -5 18 -3 22 9 17 9
-3 16 -4 16 -1 0 10 -30 16 -35 7z"/>
<path d="M4600 1940 c-9 -6 -10 -10 -3 -10 6 0 15 5 18 10 8 12 4 12 -15 0z"/>
<path d="M3940 1920 c0 -5 5 -10 11 -10 5 0 7 5 4 10 -3 6 -8 10 -11 10 -2 0
-4 -4 -4 -10z"/>
<path d="M3776 1893 c-6 -14 -5 -15 5 -6 7 7 10 15 7 18 -3 3 -9 -2 -12 -12z"/>
<path d="M3867 1877 c3 -4 8 -6 11 -3 3 3 10 1 17 -4 8 -7 12 -6 12 3 0 7 -11
13 -23 13 -12 0 -20 -4 -17 -9z"/>
<path d="M3940 1882 c0 -5 7 -9 15 -9 8 0 15 4 15 9 0 4 -7 8 -15 8 -8 0 -15
-4 -15 -8z"/>
<path d="M4579 1873 c-13 -16 -12 -17 4 -4 9 7 17 15 17 17 0 8 -8 3 -21 -13z"/>
<path d="M2775 1860 c-6 -9 -4 -11 5 -5 9 6 12 4 8 -6 -4 -11 1 -15 17 -15 13
0 21 4 18 9 -3 4 -7 6 -11 3 -3 -3 -10 2 -17 11 -9 13 -14 13 -20 3z"/>
<path d="M3975 1860 c-3 -6 1 -7 9 -4 18 7 21 14 7 14 -6 0 -13 -4 -16 -10z"/>
<path d="M4010 1859 c0 -5 5 -7 10 -4 6 3 10 8 10 11 0 2 -4 4 -10 4 -5 0 -10
-5 -10 -11z"/>
<path d="M3990 1840 c0 -5 5 -10 11 -10 5 0 7 5 4 10 -3 6 -8 10 -11 10 -2 0
-4 -4 -4 -10z"/>
<path d="M4044 1839 c15 -9 16 -13 5 -20 -20 -13 -31 -11 -23 4 4 6 3 9 -1 4
-5 -4 -9 -16 -10 -26 -1 -18 0 -18 27 2 21 16 25 24 17 34 -6 7 -17 13 -23 13
-6 0 -3 -5 8 -11z"/>
<path d="M4565 1839 c-3 -4 2 -6 10 -5 21 3 28 13 10 13 -9 0 -18 -4 -20 -8z"/>
<path d="M4075 1809 c-4 -6 -5 -12 -2 -15 2 -3 7 2 10 11 7 17 1 20 -8 4z"/>
<path d="M4096 1805 c-3 -8 -1 -15 4 -15 6 0 10 7 10 15 0 8 -2 15 -4 15 -2 0
-6 -7 -10 -15z"/>
<path d="M3935 1781 c-3 -5 -2 -12 3 -15 5 -3 9 1 9 9 0 17 -3 19 -12 6z"/>
<path d="M4043 1775 c-3 -9 -3 -18 -1 -21 3 -3 8 4 11 16 6 23 -1 27 -10 5z"/>
<path d="M4125 1780 c-16 -7 -17 -9 -3 -9 9 -1 20 4 23 9 7 11 7 11 -20 0z"/>
<path d="M4566 1758 c3 -5 10 -6 15 -3 13 9 11 12 -6 12 -8 0 -12 -4 -9 -9z"/>
<path d="M2786 1740 c5 -8 9 -18 9 -22 0 -3 3 -9 7 -13 3 -4 5 0 4 9 -1 9 -8
22 -16 29 -10 10 -11 9 -4 -3z"/>
<path d="M4152 1736 c7 -8 15 -12 17 -11 5 6 -10 25 -20 25 -5 0 -4 -6 3 -14z"/>
<path d="M4036 1727 c3 -10 9 -15 12 -12 3 3 0 11 -7 18 -10 9 -11 8 -5 -6z"/>
<path d="M4193 1718 c1 -16 5 -28 9 -28 10 0 9 9 -2 35 -8 17 -8 16 -7 -7z"/>
<path d="M2771 1714 c0 -11 3 -14 6 -6 3 7 2 16 -1 19 -3 4 -6 -2 -5 -13z"/>
<path d="M4060 1726 c0 -2 8 -10 18 -17 15 -13 16 -12 3 4 -13 16 -21 21 -21
13z"/>
<path d="M4120 1720 c-8 -5 -10 -10 -5 -10 6 0 17 5 25 10 8 5 11 10 5 10 -5
0 -17 -5 -25 -10z"/>
<path d="M4250 1716 c0 -3 9 -10 20 -16 11 -6 20 -8 20 -6 0 3 -9 10 -20 16
-11 6 -20 8 -20 6z"/>
<path d="M4241 1684 c0 -11 3 -14 6 -6 3 7 2 16 -1 19 -3 4 -6 -2 -5 -13z"/>
<path d="M2815 1681 c-3 -5 -2 -12 3 -15 5 -3 9 1 9 9 0 17 -3 19 -12 6z"/>
<path d="M4301 1683 c3 -20 -2 -27 -11 -13 -6 9 -10 10 -10 3 0 -19 17 -24 29
-9 9 10 9 16 1 21 -6 4 -10 3 -9 -2z"/>
<path d="M4536 1673 c-6 -14 -5 -15 5 -6 7 7 10 15 7 18 -3 3 -9 -2 -12 -12z"/>
<path d="M4110 1659 c0 -5 5 -7 10 -4 6 3 10 8 10 11 0 2 -4 4 -10 4 -5 0 -10
-5 -10 -11z"/>
<path d="M4255 1659 c-4 -6 -5 -12 -2 -15 2 -3 7 2 10 11 7 17 1 20 -8 4z"/>
<path d="M4337 1659 c7 -7 15 -10 18 -7 3 3 -2 9 -12 12 -14 6 -15 5 -6 -5z"/>
<path d="M4211 1647 c-8 -10 -7 -14 2 -14 8 0 14 6 14 14 0 7 -1 13 -2 13 -2
0 -8 -6 -14 -13z"/>
<path d="M4550 1656 c0 -2 8 -10 18 -17 15 -13 16 -12 3 4 -13 16 -21 21 -21
13z"/>
<path d="M2751 1647 c2 -1 13 -9 24 -17 19 -14 19 -14 6 3 -7 9 -18 17 -24 17
-6 0 -8 -1 -6 -3z"/>
<path d="M4306 1642 c-2 -4 4 -8 14 -8 10 0 16 4 14 8 -3 4 -9 8 -14 8 -5 0
-11 -4 -14 -8z"/>
<path d="M4365 1640 c-16 -7 -17 -9 -3 -9 9 -1 20 4 23 9 7 11 7 11 -20 0z"/>
<path d="M4390 1620 c0 -5 5 -10 10 -10 6 0 10 5 10 10 0 6 -4 10 -10 10 -5 0
-10 -4 -10 -10z"/>
<path d="M2757 1613 c-10 -9 -9 -23 1 -23 5 0 9 7 9 15 0 17 -1 18 -10 8z"/>
<path d="M4301 1598 c-13 -21 -13 -22 2 -10 9 8 21 11 26 7 7 -3 8 0 5 9 -8
22 -17 20 -33 -6z"/>
<path d="M4354 1599 c0 -13 3 -15 13 -7 7 6 13 12 13 13 0 2 -6 5 -13 8 -7 3
-13 -3 -13 -14z"/>
<path d="M2815 1600 c-3 -5 -1 -10 4 -10 6 0 11 5 11 10 0 6 -2 10 -4 10 -3 0
-8 -4 -11 -10z"/>
<path d="M4421 1593 c0 -11 3 -13 6 -5 2 6 10 9 15 6 7 -4 8 -2 4 4 -11 18
-26 14 -25 -5z"/>
<path d="M4375 1581 c-9 -15 15 -25 28 -12 9 9 7 10 -7 5 -13 -5 -17 -4 -12 4
4 7 5 12 2 12 -3 0 -7 -4 -11 -9z"/>
<path d="M4500 1585 c0 -2 6 -8 13 -14 10 -8 14 -7 14 2 0 8 -6 14 -14 14 -7
0 -13 -1 -13 -2z"/>
<path d="M4600 1580 c-9 -6 -10 -10 -3 -10 6 0 15 5 18 10 8 12 4 12 -15 0z"/>
<path d="M4451 1570 c0 -8 4 -22 9 -30 12 -18 12 -2 0 25 -6 13 -9 15 -9 5z"/>
<path d="M4256 1562 c-3 -5 1 -9 9 -9 8 0 12 4 9 9 -3 4 -7 8 -9 8 -2 0 -6 -4
-9 -8z"/>
<path d="M4354 1556 c1 -8 5 -18 8 -22 4 -3 5 1 4 10 -1 8 -5 18 -8 22 -4 3
-5 -1 -4 -10z"/>
<path d="M2786 1538 c3 -5 10 -6 15 -3 13 9 11 12 -6 12 -8 0 -12 -4 -9 -9z"/>
<path d="M2756 1521 c-3 -5 2 -15 12 -22 15 -12 16 -12 5 2 -7 9 -10 19 -6 22
3 4 4 7 0 7 -3 0 -8 -4 -11 -9z"/>
<path d="M4396 1513 c-6 -14 -5 -15 5 -6 7 7 10 15 7 18 -3 3 -9 -2 -12 -12z"/>
<path d="M4420 1526 c0 -2 8 -10 18 -17 15 -13 16 -12 3 4 -13 16 -21 21 -21
13z"/>
<path d="M4500 1526 c0 -2 8 -10 18 -17 15 -13 16 -12 3 4 -13 16 -21 21 -21
13z"/>
<path d="M2753 1447 c-1 -11 -1 -18 0 -16 2 2 8 11 15 20 9 12 9 16 -1 16 -7
0 -14 -9 -14 -20z"/>
<path d="M2732 1440 c0 -14 2 -19 5 -12 2 6 2 18 0 25 -3 6 -5 1 -5 -13z"/>
<path d="M2790 1456 c0 -2 8 -10 18 -17 15 -13 16 -12 3 4 -13 16 -21 21 -21
13z"/>
<path d="M4440 1446 c0 -2 8 -10 18 -17 15 -13 16 -12 3 4 -13 16 -21 21 -21
13z"/>
<path d="M2755 1331 c-3 -6 -14 -8 -25 -6 -11 2 -20 0 -20 -6 0 -12 37 -6 52
9 7 7 9 12 6 12 -4 0 -9 -4 -13 -9z"/>
<path d="M2766 1302 c-3 -5 1 -9 9 -9 8 0 12 4 9 9 -3 4 -7 8 -9 8 -2 0 -6 -4
-9 -8z"/>
<path d="M2713 1265 c0 -8 4 -15 9 -15 4 0 8 4 8 9 0 6 -4 12 -8 15 -5 3 -9
-1 -9 -9z"/>
<path d="M2740 1240 c-8 -5 -10 -10 -5 -10 6 0 17 5 25 10 8 5 11 10 5 10 -5
0 -17 -5 -25 -10z"/>
<path d="M2773 1183 c4 -3 1 -13 -6 -22 -11 -14 -10 -14 5 -2 16 12 16 31 1
31 -4 0 -3 -3 0 -7z"/>
<path d="M1881 1163 c7 -10 14 -19 15 -21 1 -2 4 4 8 13 3 9 2 13 -4 10 -6 -3
-10 -1 -10 4 0 6 -5 11 -11 11 -8 0 -7 -6 2 -17z"/>
<path d="M2716 1162 c-3 -5 1 -9 9 -9 8 0 12 4 9 9 -3 4 -7 8 -9 8 -2 0 -6 -4
-9 -8z"/>
<path d="M2690 1151 c0 -6 4 -13 10 -16 6 -3 7 1 4 9 -7 18 -14 21 -14 7z"/>
<path d="M1910 1140 c0 -5 7 -7 15 -4 8 4 15 8 15 10 0 2 -7 4 -15 4 -8 0 -15
-4 -15 -10z"/>
<path d="M1873 1113 c0 -11 7 -20 14 -20 10 0 10 4 1 16 -7 9 -13 18 -15 20
-1 2 -1 -5 0 -16z"/>
<path d="M1937 1113 c5 -12 3 -14 -7 -8 -9 5 -11 4 -6 -4 4 -6 12 -9 17 -6 12
8 12 35 -1 35 -5 0 -6 -7 -3 -17z"/>
<path d="M1973 1080 c3 -17 11 -26 25 -28 12 -2 22 1 22 6 0 6 -10 8 -22 4
-12 -3 -19 -1 -15 4 3 6 1 16 -4 24 -7 11 -8 8 -6 -10z"/>
<path d="M1947 1071 c-4 -17 -3 -21 5 -13 5 5 8 16 6 23 -3 8 -7 3 -11 -10z"/>
<path d="M1856 1062 c-3 -4 4 -9 15 -9 23 -2 25 3 4 10 -8 4 -16 3 -19 -1z"/>
<path d="M2694 1058 c-3 -5 0 -7 8 -6 7 2 12 -2 11 -9 -3 -12 22 -12 34 1 4 4
1 6 -7 4 -8 -1 -14 2 -13 8 2 13 -25 15 -33 2z"/>
<path d="M2030 1039 c0 -5 5 -7 10 -4 6 3 10 8 10 11 0 2 -4 4 -10 4 -5 0 -10
-5 -10 -11z"/>
<path d="M1990 1036 c0 -3 9 -10 20 -16 11 -6 20 -8 20 -6 0 3 -9 10 -20 16
-11 6 -20 8 -20 6z"/>
<path d="M1949 1021 c7 -5 10 -14 7 -20 -4 -6 -3 -11 2 -11 5 0 12 8 14 18 4
13 -1 18 -16 20 -15 1 -17 -1 -7 -7z"/>
<path d="M2041 1013 c-1 -6 -4 -20 -7 -30 -5 -17 -5 -17 6 0 6 10 9 23 6 30
-3 9 -5 9 -5 0z"/>
<path d="M2695 1010 c-4 -6 -11 -8 -16 -5 -5 4 -9 2 -9 -3 0 -5 8 -12 18 -14
12 -4 18 1 18 13 0 22 -2 23 -11 9z"/>
<path d="M2095 991 c5 -9 0 -12 -16 -9 -20 2 -24 -2 -26 -27 -1 -20 1 -25 6
-16 5 8 7 20 4 27 -3 8 2 11 15 7 22 -5 38 12 21 23 -8 5 -9 3 -4 -5z"/>
<path d="M2677 955 c-3 -6 3 -11 12 -11 10 0 18 5 18 11 0 7 -6 12 -13 12 -7
0 -15 -5 -17 -12z"/>
<path d="M2081 936 c-9 -10 -8 -15 3 -19 11 -4 13 -1 9 10 -5 12 -3 14 7 8 9
-5 11 -4 6 3 -9 15 -11 15 -25 -2z"/>
<path d="M2121 935 c0 -5 3 -16 8 -23 7 -11 9 -10 14 3 4 9 3 14 -2 10 -5 -3
-12 1 -14 7 -3 7 -6 9 -6 3z"/>
<path d="M2680 926 c0 -2 7 -9 15 -16 13 -11 14 -10 9 4 -5 14 -24 23 -24 12z"/>
<path d="M2155 909 c-4 -6 -5 -12 -2 -15 2 -3 7 2 10 11 7 17 1 20 -8 4z"/>
<path d="M2010 905 c0 -7 30 -13 34 -7 3 4 -4 9 -15 9 -10 1 -19 0 -19 -2z"/>
<path d="M2067 899 c7 -7 15 -10 18 -7 3 3 -2 9 -12 12 -14 6 -15 5 -6 -5z"/>
<path d="M2105 879 c-3 -4 2 -6 10 -5 21 3 28 13 10 13 -9 0 -18 -4 -20 -8z"/>
<path d="M2196 874 c-9 -24 -2 -26 12 -4 7 11 8 20 3 20 -5 0 -12 -7 -15 -16z"/>
<path d="M2696 873 c-6 -14 -5 -15 5 -6 7 7 10 15 7 18 -3 3 -9 -2 -12 -12z"/>
<path d="M2146 863 c-6 -14 -5 -15 5 -6 7 7 10 15 7 18 -3 3 -9 -2 -12 -12z"/>
<path d="M2207 847 c-23 -30 -24 -33 -6 -32 10 1 22 5 26 10 5 4 2 5 -4 1 -16
-9 -16 -1 -2 25 5 11 15 16 21 13 7 -4 8 -3 4 4 -10 16 -10 16 -39 -21z"/>
<path d="M2163 838 c-11 -19 -13 -39 -1 -32 5 3 7 9 4 12 -3 3 -1 11 5 19 6 7
9 13 6 13 -3 0 -9 -6 -14 -12z"/>
<path d="M2236 838 c3 -4 11 -5 19 -1 21 7 19 12 -4 10 -11 0 -18 -5 -15 -9z"/>
<path d="M2669 836 c9 -11 9 -15 -1 -19 -7 -3 -3 -4 9 -4 21 1 21 2 6 19 -19
21 -31 24 -14 4z"/>
<path d="M2257 823 c-3 -5 0 -17 4 -28 8 -18 9 -18 5 3 -3 18 -1 22 10 18 9
-3 12 -1 9 4 -7 12 -22 13 -28 3z"/>
<path d="M2296 803 c-9 -22 5 -35 24 -22 12 9 12 10 -3 5 -15 -5 -17 -2 -12
14 8 24 0 27 -9 3z"/>
<path d="M2735 811 c-3 -5 -2 -12 3 -15 5 -3 9 1 9 9 0 17 -3 19 -12 6z"/>
<path d="M2230 800 c0 -5 5 -10 11 -10 5 0 7 5 4 10 -3 6 -8 10 -11 10 -2 0
-4 -4 -4 -10z"/>
<path d="M2260 755 c-19 -22 -8 -25 13 -3 9 10 13 18 8 18 -5 0 -14 -7 -21
-15z"/>
<path d="M2315 759 c-11 -16 -1 -19 13 -3 7 8 8 14 3 14 -5 0 -13 -5 -16 -11z"/>
<path d="M2351 758 c-1 -21 17 -34 31 -20 6 6 6 12 -3 17 -8 5 -10 4 -5 -3 4
-7 3 -12 -3 -12 -5 0 -12 8 -14 18 -4 15 -5 15 -6 0z"/>
<path d="M2693 755 c0 -8 4 -12 9 -9 4 3 8 9 8 15 0 5 -4 9 -8 9 -5 0 -9 -7
-9 -15z"/>
<path d="M2215 740 c3 -5 8 -10 11 -10 2 0 4 5 4 10 0 6 -5 10 -11 10 -5 0 -7
-4 -4 -10z"/>
<path d="M2276 727 c3 -10 9 -15 12 -12 3 3 0 11 -7 18 -10 9 -11 8 -5 -6z"/>
<path d="M2353 712 c15 -10 24 -21 21 -24 -3 -4 4 -11 15 -18 14 -7 21 -7 21
0 0 5 -7 10 -16 10 -8 0 -13 4 -10 9 6 9 -35 41 -51 41 -4 0 4 -8 20 -18z"/>
<path d="M2390 719 c0 -5 5 -7 10 -4 6 3 10 8 10 11 0 2 -4 4 -10 4 -5 0 -10
-5 -10 -11z"/>
<path d="M2680 720 c-9 -6 -10 -10 -3 -10 6 0 15 5 18 10 8 12 4 12 -15 0z"/>
<path d="M2320 706 c0 -2 7 -7 16 -10 8 -3 12 -2 9 4 -6 10 -25 14 -25 6z"/>
<path d="M2410 699 c0 -5 5 -7 10 -4 6 3 10 8 10 11 0 2 -4 4 -10 4 -5 0 -10
-5 -10 -11z"/>
<path d="M2289 683 c-13 -16 -12 -17 4 -4 9 7 17 15 17 17 0 8 -8 3 -21 -13z"/>
<path d="M2652 691 c-11 -7 -11 -9 0 -14 9 -3 15 1 15 9 0 8 -1 14 -1 14 -1 0
-7 -4 -14 -9z"/>
<path d="M2320 686 c0 -2 8 -10 18 -17 15 -13 16 -12 3 4 -13 16 -21 21 -21
13z"/>
<path d="M2359 663 c-6 -36 -4 -50 7 -50 10 0 11 4 4 12 -6 7 -8 20 -4 29 3 9
3 16 0 16 -3 0 -7 -3 -7 -7z"/>
<path d="M2410 640 c0 -5 5 -10 10 -10 6 0 10 5 10 10 0 6 -4 10 -10 10 -5 0
-10 -4 -10 -10z"/>
<path d="M2474 642 c3 -6 1 -12 -6 -14 -6 -2 -13 -15 -15 -29 -2 -18 -1 -20 6
-9 5 8 8 17 5 21 -7 12 23 18 35 6 6 -6 13 -8 16 -5 3 3 -6 13 -21 23 -15 9
-24 12 -20 7z"/>
<path d="M2645 622 c-5 -4 -11 -14 -13 -22 -2 -8 0 -12 4 -8 4 4 12 3 19 -2 8
-7 12 -5 12 5 0 8 -5 11 -10 8 -6 -4 -8 0 -4 10 7 19 6 20 -8 9z"/>
<path d="M2686 622 c-3 -5 1 -9 9 -9 8 0 12 4 9 9 -3 4 -7 8 -9 8 -2 0 -6 -4
-9 -8z"/>
<path d="M2426 605 c-9 -26 -7 -32 5 -12 6 10 9 21 6 23 -2 3 -7 -2 -11 -11z"/>
<path d="M2511 592 c3 -20 -2 -32 -11 -27 -5 3 -10 1 -10 -4 0 -16 18 -13 28
5 5 9 12 15 15 15 4 -1 8 2 10 6 1 3 -6 7 -15 9 -10 1 -17 -1 -17 -4z"/>
<path d="M2470 580 c0 -5 7 -7 15 -4 8 4 15 8 15 10 0 2 -7 4 -15 4 -8 0 -15
-4 -15 -10z"/>
<path d="M2690 576 c0 -2 8 -10 18 -17 15 -13 16 -12 3 4 -13 16 -21 21 -21
13z"/>
<path d="M2547 564 c-3 -4 -2 -14 3 -24 5 -10 7 -20 5 -24 -3 -3 -2 -4 2 -1 3
3 12 -3 20 -13 8 -9 5 -1 -6 19 -11 20 -18 39 -14 42 3 4 4 7 1 7 -2 0 -8 -3
-11 -6z"/>
<path d="M2660 566 c0 -2 8 -10 18 -17 15 -13 16 -12 3 4 -13 16 -21 21 -21
13z"/>
<path d="M2475 540 c6 -10 4 -12 -11 -6 -15 6 -17 5 -6 -5 9 -9 15 -10 23 -2
8 8 7 13 -2 18 -8 6 -10 4 -4 -5z"/>
<path d="M2513 542 c-9 -6 -7 -11 7 -20 12 -7 20 -8 20 -2 0 5 -5 10 -11 10
-5 0 -7 5 -4 10 7 12 4 12 -12 2z"/>
<path d="M2636 533 c-6 -14 -5 -15 5 -6 7 7 10 15 7 18 -3 3 -9 -2 -12 -12z"/>
<path d="M2660 520 c-8 -5 -10 -10 -5 -10 6 0 17 5 25 10 8 5 11 10 5 10 -5 0
-17 -5 -25 -10z"/>
<path d="M2510 496 c0 -3 9 -10 20 -16 11 -6 20 -8 20 -6 0 3 -9 10 -20 16
-11 6 -20 8 -20 6z"/>
<path d="M2635 480 c3 -5 8 -10 11 -10 2 0 4 5 4 10 0 6 -5 10 -11 10 -5 0 -7
-4 -4 -10z"/>
<path d="M2695 461 c-3 -5 -2 -12 3 -15 5 -3 9 1 9 9 0 17 -3 19 -12 6z"/>
<path d="M2540 452 c0 -6 -8 -9 -17 -6 -15 5 -16 4 -3 -5 16 -11 40 3 27 16
-4 3 -7 1 -7 -5z"/>
<path d="M2654 449 c-3 -6 -2 -15 3 -20 5 -5 9 -1 9 11 0 23 -2 24 -12 9z"/>
<path d="M2597 417 c4 -7 -1 -8 -13 -3 -15 6 -17 5 -6 -5 10 -11 15 -10 28 2
13 14 13 16 0 16 -8 0 -12 -5 -9 -10z"/>
<path d="M2490 400 c0 -5 5 -10 11 -10 5 0 7 5 4 10 -3 6 -8 10 -11 10 -2 0
-4 -4 -4 -10z"/>
<path d="M2529 397 c6 -8 7 -18 3 -22 -4 -5 -1 -5 6 -1 10 6 10 11 1 22 -6 8
-14 14 -16 14 -3 0 0 -6 6 -13z"/>
<path d="M2615 400 c-3 -5 -1 -10 4 -10 6 0 11 5 11 10 0 6 -2 10 -4 10 -3 0
-8 -4 -11 -10z"/>
<path d="M2650 380 c0 -5 5 -10 11 -10 5 0 7 5 4 10 -3 6 -8 10 -11 10 -2 0
-4 -4 -4 -10z"/>
<path d="M2585 360 c-3 -6 1 -7 9 -4 18 7 21 14 7 14 -6 0 -13 -4 -16 -10z"/>
<path d="M2655 351 c-3 -5 -2 -12 3 -15 5 -3 9 1 9 9 0 17 -3 19 -12 6z"/>
<path d="M2600 340 c-9 -6 -10 -10 -3 -10 6 0 15 5 18 10 8 12 4 12 -15 0z"/>
<path d="M2613 305 c0 -8 4 -12 9 -9 5 3 6 10 3 15 -9 13 -12 11 -12 -6z"/>
</g>
</svg>
